<svg id="menu" xmlns="http://www.w3.org/2000/svg" width="20" height="20" viewBox="0 0 20 20">
  <g id="Group_339" data-name="Group 339">
    <g id="Group_338" data-name="Group 338">
      <path id="Path_290" data-name="Path 290" d="M8.462,0H.769A.769.769,0,0,0,0,.769V8.462a.769.769,0,0,0,.769.769H8.462a.769.769,0,0,0,.769-.769V.769A.769.769,0,0,0,8.462,0Z" fill="#494b74"/>
      <path id="Path_291" data-name="Path 291" d="M19.231,0H11.538a.769.769,0,0,0-.769.769V8.462a.769.769,0,0,0,.769.769h7.692A.769.769,0,0,0,20,8.462V.769A.769.769,0,0,0,19.231,0Z" fill="#494b74"/>
      <path id="Path_292" data-name="Path 292" d="M8.462,10.769H.769A.769.769,0,0,0,0,11.539v7.692A.769.769,0,0,0,.769,20H8.462a.769.769,0,0,0,.769-.769V11.539A.769.769,0,0,0,8.462,10.769Z" fill="#494b74"/>
      <path id="Path_293" data-name="Path 293" d="M19.231,10.769H11.538a.769.769,0,0,0-.769.769v7.692a.769.769,0,0,0,.769.769h7.692A.769.769,0,0,0,20,19.231V11.539A.769.769,0,0,0,19.231,10.769Z" fill="#494b74"/>
    </g>
  </g>
</svg>
