<svg id="search_2_" data-name="search (2)" xmlns="http://www.w3.org/2000/svg" width="14" height="14" viewBox="0 0 14 14">
  <g id="Group_120" data-name="Group 120">
    <g id="Group_119" data-name="Group 119">
      <path id="Path_87" data-name="Path 87" d="M6.165,0a6.165,6.165,0,1,0,6.165,6.165A6.172,6.172,0,0,0,6.165,0Zm0,11.192a5.027,5.027,0,1,1,5.027-5.027A5.033,5.033,0,0,1,6.165,11.192Z" transform="translate(0 0)" fill="#7e8299"/>
    </g>
  </g>
  <g id="Group_122" data-name="Group 122" transform="translate(9.599 9.599)">
    <g id="Group_121" data-name="Group 121">
      <path id="Path_88" data-name="Path 88" d="M15.2,14.4l-3.263-3.263a.569.569,0,1,0-.8.8L14.4,15.2a.569.569,0,0,0,.8-.8Z" transform="translate(-10.97 -10.97)" fill="#7e8299"/>
    </g>
  </g>
</svg>
